<svg width="24" height="24" viewBox="0 0 24 24" fill="none" xmlns="http://www.w3.org/2000/svg">
<path fill-rule="evenodd" clip-rule="evenodd" d="M18.0019 6C18.0019 9.31371 15.3148 12 12.0001 12C8.68535 12 5.99824 9.31371 5.99824 6C5.99824 2.68629 8.68535 0 12.0001 0C15.3148 0 18.0019 2.68629 18.0019 6ZM15.601 6C15.601 4.01178 13.9887 2.4 11.9999 2.4C10.0111 2.4 8.39883 4.01178 8.39883 6C8.39883 7.98822 10.0111 9.6 11.9999 9.6C13.9887 9.6 15.601 7.98822 15.601 6ZM23.8716 22.26L21.6029 17.712C20.5853 15.682 18.5086 14.4001 16.2373 14.4H7.76272C5.49137 14.4001 3.41466 15.682 2.39709 17.712L0.128408 22.26C-0.0588113 22.6314 -0.0402969 23.0733 0.177339 23.4277C0.394975 23.7822 0.780694 23.9987 1.19673 24H22.8033C23.2193 23.9987 23.605 23.7822 23.8227 23.4277C24.0403 23.0733 24.0588 22.6314 23.8716 22.26ZM4.54564 18.792L3.14121 21.6H20.8586L19.4541 18.792C18.8453 17.5729 17.6002 16.8019 16.2372 16.8H7.76261C6.3996 16.8019 5.15445 17.5729 4.54564 18.792Z" fill="#3F3F3F"/>
</svg>
