<svg width="762" height="489" viewBox="0 0 762 489" fill="none" xmlns="http://www.w3.org/2000/svg">
<path d="M71.8157 499.199L121.584 483.349L120.866 480.958L70.0025 466.465L112.526 453.192L111.808 450.801L51.7115 433.268C45.3294 431.376 44.2072 430.309 41.907 425.989L40.4174 426.035L45.775 443.872L47.2369 443.733C46.3889 437.573 46.0569 434.465 53.1654 436.44L100.414 449.913L65.3387 460.95C60.5854 462.478 56.2089 463.592 51.6848 463.547L54.9988 474.58L56.4608 474.442C56.3668 468.456 63.2076 467.203 69.654 468.976L109.344 480.309L68.8436 492.975C64.7062 494.218 62.6731 491.12 60.3547 487.406L58.8651 487.452L64.5264 506.3L66.0436 506.346C65.6927 501.84 66.2901 501.16 71.8157 499.199Z" fill="white"/>
<path d="M100.31 392.192L101.934 392.7L102.29 371.967L100.759 371.653C99.73 375.668 98.8183 378.437 92.4235 376.215L51.5723 362.071C45.1775 359.849 44.5501 357.246 43.8695 352.145L42.15 351.636L41.7957 372.273L43.4192 372.781C44.2563 368.763 45.2574 366.379 51.6522 368.601L92.505 382.649C98.8998 384.871 99.5322 387.186 100.31 392.192Z" fill="white"/>
<path d="M99.4059 359.743L100.918 360.523L104.384 342.517L102.93 341.944C101.04 346.175 99.7779 348.67 93.8611 345.38L55.7139 324.154L109.32 316.876L109.738 314.708L103.103 311.084L103.234 310.914L102.933 310.954L62.8965 288.875C56.9797 285.585 56.9767 282.554 56.9777 277.471L55.484 276.597L52.0359 294.508L53.4535 295.269C55.3434 291.038 56.6057 288.544 62.5224 291.834L98.4001 311.646L47.3356 318.923L45.2304 329.859L46.7241 330.733C48.2768 326.73 49.7276 324.272 55.6444 327.562L93.469 348.433C99.3857 351.722 99.4069 354.659 99.4059 359.743Z" fill="white"/>
<path d="M125.701 263.112L126.954 264.226L138.87 242.185L137.656 241.201C133.661 246.571 131.76 248.272 127.106 243.355L92.0701 206.625L94.5812 201.98C99.101 193.62 102.915 195.245 110.168 200.804L110.807 199.621L98.565 187.546L97.3094 191.887L79.8692 224.147L77.2441 226.984L89.2697 240.47L90.0002 239.118C84.4017 231.508 81.4782 226.217 86.0893 217.688L88.9656 212.368L124.034 249.442C128.687 254.359 127.87 257.082 125.701 263.112Z" fill="white"/>
<path d="M167.995 202.479C181.748 186.96 177.959 159.102 161.577 144.585C152.812 136.818 142.813 135.653 134.854 144.634C121.101 160.153 124.747 187.883 141.2 202.464C150.109 210.359 160.036 211.46 167.995 202.479ZM145.439 196.088C132.004 184.181 124.649 160.347 134.964 148.708C140.567 142.385 149.003 143.576 157.41 151.025C170.845 162.932 178.136 186.838 167.885 198.405C162.282 204.728 153.846 203.537 145.439 196.088Z" fill="white"/>
<path d="M185.424 113.37L213.727 157.268L215.847 155.951L216.547 103.068L240.47 140.646L242.59 139.328L243.813 76.7385C243.972 70.0838 244.708 68.722 248.278 65.3728L247.843 63.947L232.026 73.7787L232.542 75.1537C238.267 72.7256 241.18 71.5931 241.131 78.9706L240.47 128.099L220.653 97.1249C217.936 92.9358 215.717 89.0024 214.578 84.6239L204.794 90.7053L205.309 92.0804C211.063 90.4257 214.06 96.7015 214.033 103.387L213.463 144.66L190.655 108.875C188.375 105.206 190.834 102.434 193.813 99.2261L193.379 97.8003L176.665 108.189L177.017 109.666C181.275 108.15 182.088 108.549 185.424 113.37Z" fill="white"/>
<path d="M272.961 119.841L272.942 121.542L290.587 116.556L290.447 115C285.818 115.21 283.022 115.202 283.305 108.438L285.145 64.8223L315.715 109.455L317.84 108.855L318.099 101.299L318.31 101.339L318.139 101.088L319.893 55.4017C320.176 48.6378 322.884 47.2741 327.426 44.9928L327.537 43.2656L309.984 48.2259L309.94 49.8346C314.569 49.6238 317.365 49.6318 317.082 56.3958L315.487 97.349L286.057 54.9876L275.341 58.016L275.231 59.7432C279.504 59.3335 282.352 59.5264 282.069 66.2903L280.401 109.459C280.118 116.223 277.503 117.56 272.961 119.841Z" fill="white"/>
<path d="M367.356 78.864L393.852 78.864V76.56L367.356 76.56V78.864Z" fill="white"/>
<path d="M425.327 102.01L424.421 103.45L442.066 108.437L442.761 107.037C438.706 104.794 436.329 103.324 440.11 97.7085L464.507 61.5066L467.194 115.538L469.319 116.138L473.494 109.836L473.653 109.981L473.639 109.678L499.045 71.6662C502.827 66.051 505.847 66.306 510.912 66.7398L511.911 65.3259L494.358 60.3656L493.478 61.7132C497.533 63.9564 499.911 65.4265 496.129 71.0417L473.336 105.103L470.431 53.6039L459.715 50.5755L458.717 51.9894C462.573 53.8771 464.898 55.5319 461.117 61.1472L437.102 97.0578C433.32 102.673 430.392 102.444 425.327 102.01Z" fill="white"/>
<path d="M487.301 119.955L486.238 121.129L521.629 140.043L535.692 131.449L534.084 130.589C524.858 135.02 519.679 135.953 513.668 132.74L507.572 129.482C501.899 126.45 500.725 125.388 505.846 120.287L520.354 106.379L526.958 109.909C536.186 114.841 535.835 116.721 531.37 121.41L532.724 122.134L547.492 108.147L546.137 107.423C541.26 111.457 538.56 112.844 529.331 107.912L522.558 104.292L536.139 91.3039C540.954 86.3668 543.281 86.0864 549.038 89.1633L556.743 93.2809C562.331 96.2673 561.346 99.3328 556.383 104.953L557.992 105.813L567.493 95.978L532.102 77.0643L530.909 78.2774C534.188 80.9004 535.767 82.833 530.873 87.5103L499.738 117.458C494.759 122.09 491.987 121.371 487.301 119.955Z" fill="white"/>
<path d="M589.353 123.695L554.101 162.236L555.915 163.95L607.235 151.172L576.981 183.869L578.795 185.584L639.635 170.841C646.112 169.301 647.616 169.667 651.763 172.267L653.032 171.484L639.499 158.689L638.3 159.537C642.105 164.456 643.942 166.985 636.794 168.815L589.115 180.677L614.027 153.63C617.387 149.937 620.626 146.79 624.571 144.575L616.2 136.66L615.002 137.509C618.066 142.652 612.759 147.147 606.287 148.822L566.227 158.772L595.031 127.61C597.999 124.471 601.305 126.144 605.166 128.209L606.434 127.426L592.134 113.906L590.796 114.622C593.345 118.354 593.167 119.242 589.353 123.695Z" fill="white"/>
<path d="M617.966 230.67L616.306 231.038L626.328 249.191L627.812 248.701C626.703 244.707 626.114 241.853 632.766 240.593L675.232 232.5C681.883 231.24 683.725 233.185 686.856 237.268L688.601 236.853L678.625 218.784L676.964 219.152C678.241 223.053 678.56 225.618 671.909 226.878L629.489 235.055C622.837 236.315 621.135 234.622 617.966 230.67Z" fill="white"/>
<path d="M634.919 258.353L633.22 258.43L639.186 275.769L640.732 275.541C640.263 270.931 640.114 268.139 646.884 268.044L690.534 267.439L647.683 300.46L648.401 302.547L655.959 302.383L655.931 302.596L656.172 302.412L701.885 301.605C708.655 301.509 710.168 304.136 712.7 308.544L714.43 308.557L708.495 291.31L706.887 291.356C707.356 295.966 707.505 298.758 700.735 298.853L659.757 299.553L700.405 267.799L696.781 257.269L695.05 257.255C695.699 261.5 695.666 264.354 688.896 264.449L645.702 265.201C638.933 265.297 637.451 262.761 634.919 258.353Z" fill="white"/>
<path d="M660.27 355.237L658.628 354.895L659.28 379.943L660.823 380.191C661.61 373.544 662.412 371.122 668.896 373.066L717.575 387.454L717.712 392.732C717.959 402.233 713.842 402.724 704.784 401.519L704.819 402.863L721.45 407.232L720.376 402.842L719.422 366.183L720.285 362.415L703.139 356.715L703.179 358.25C711.825 362.059 716.996 365.189 717.248 374.882L717.405 380.928L668.527 366.258C662.042 364.314 661.394 361.545 660.27 355.237Z" fill="white"/>
<path d="M653.812 428.88C649.621 449.188 666.787 471.453 688.224 475.877C699.694 478.244 708.944 474.272 711.369 462.52C715.56 442.212 698.582 419.985 677.052 415.542C665.393 413.136 656.238 417.128 653.812 428.88ZM676.553 423.183C694.135 426.811 712.387 443.811 709.244 459.042C707.537 467.316 699.628 470.487 688.628 468.217C671.047 464.589 652.813 447.494 655.937 432.357C657.645 424.084 665.553 420.913 676.553 423.183Z" fill="white"/>
<path d="M683.102 514.823L636.689 490.866L635.508 493.065L661.251 539.264L621.786 518.603L620.604 520.802L650.731 575.678C653.909 581.527 653.949 583.074 652.523 587.757L653.61 588.777L662.425 572.371L661.293 571.436C657.539 576.393 655.577 578.827 651.944 572.406L628.037 529.482L660.653 546.462C665.096 548.741 668.979 551.045 672.149 554.274L677.601 544.126L676.469 543.191C672.305 547.492 666.58 543.544 663.272 537.734L643.201 501.666L680.806 521.327C684.612 523.372 683.861 527.001 682.876 531.267L683.963 532.287L693.278 514.951L692.236 513.847C689.301 517.282 688.397 517.342 683.102 514.823Z" fill="white"/>
</svg>
