<svg width="762" height="488" viewBox="0 0 762 488" fill="none" xmlns="http://www.w3.org/2000/svg">
<path d="M425.327 101.01L424.421 102.45L442.066 107.436L442.761 106.036C438.706 103.793 436.328 102.323 440.11 96.7077L464.507 60.5059L467.194 114.537L469.319 115.138L473.494 108.835L473.653 108.98L473.639 108.677L499.045 70.6655C502.827 65.0503 505.847 65.3053 510.912 65.739L511.91 64.3252L494.358 59.3649L493.478 60.7125C497.533 62.9557 499.911 64.4257 496.129 70.041L473.335 104.102L470.431 52.6032L459.715 49.5748L458.716 50.9886C462.572 52.8764 464.898 54.5312 461.116 60.1464L437.102 96.0571C433.32 101.672 430.392 101.443 425.327 101.01Z" fill="#3F3F3F"/>
<path d="M487.301 118.954L486.238 120.128L521.629 139.042L535.692 130.448L534.083 129.588C524.858 134.019 519.679 134.952 513.668 131.739L507.571 128.481C501.899 125.45 500.725 124.387 505.846 119.286L520.353 105.379L526.957 108.908C536.186 113.84 535.835 115.72 531.369 120.409L532.724 121.133L547.492 107.147L546.137 106.423C541.26 110.456 538.56 111.843 529.331 106.911L522.558 103.291L536.138 90.3032C540.954 85.3661 543.281 85.0857 549.038 88.1626L556.743 92.2802C562.331 95.2666 561.346 98.3321 556.383 103.952L557.992 104.812L567.493 94.9773L532.102 76.0635L530.909 77.2766C534.188 79.8996 535.767 81.8323 530.873 86.5095L499.738 116.458C494.759 121.09 491.987 120.37 487.301 118.954Z" fill="black"/>
<path d="M589.352 122.694L554.101 161.235L555.914 162.95L607.235 150.171L576.981 182.868L578.795 184.583L639.635 169.84C646.111 168.301 647.616 168.666 651.763 171.266L653.031 170.483L639.499 157.688L638.3 158.537C642.105 163.455 643.941 165.985 636.794 167.815L589.115 179.676L614.027 152.63C617.387 148.936 620.626 145.79 624.571 143.574L616.2 135.659L615.001 136.508C618.066 141.651 612.759 146.146 606.286 147.821L566.227 157.771L595.031 126.609C597.999 123.47 601.305 125.143 605.166 127.208L606.434 126.426L592.134 112.905L590.796 113.621C593.345 117.353 593.166 118.241 589.352 122.694Z" fill="#3F3F3F"/>
<path d="M617.966 229.669L616.306 230.037L626.328 248.191L627.812 247.7C626.703 243.707 626.114 240.852 632.766 239.592L675.232 231.499C681.883 230.24 683.724 232.184 686.856 236.267L688.601 235.852L678.625 217.783L676.964 218.152C678.241 222.052 678.56 224.618 671.909 225.877L629.489 234.054C622.837 235.314 621.135 233.622 617.966 229.669Z" fill="#3F3F3F"/>
<path d="M634.919 257.353L633.22 257.43L639.186 274.768L640.732 274.54C640.263 269.93 640.114 267.139 646.883 267.043L690.534 266.438L647.683 299.459L648.401 301.547L655.959 301.383L655.931 301.595L656.172 301.411L701.885 300.604C708.654 300.508 710.167 303.135 712.7 307.543L714.43 307.557L708.495 290.309L706.886 290.355C707.356 294.965 707.505 297.757 700.735 297.853L659.757 298.553L700.405 266.798L696.781 256.268L695.05 256.255C695.699 260.499 695.666 263.353 688.896 263.449L645.702 264.201C638.933 264.296 637.451 261.761 634.919 257.353Z" fill="#3F3F3F"/>
<path d="M660.27 354.236L658.628 353.894L659.28 378.942L660.823 379.19C661.61 372.543 662.411 370.122 668.896 372.066L717.575 386.453L717.712 391.731C717.959 401.232 713.842 401.723 704.784 400.518L704.819 401.862L721.45 406.231L720.375 401.842L719.422 365.182L720.285 361.414L703.139 355.714L703.179 357.25C711.825 361.058 716.996 364.189 717.248 373.881L717.405 379.927L668.527 365.257C662.042 363.313 661.394 360.545 660.27 354.236Z" fill="#3F3F3F"/>
<path d="M653.812 427.879C649.621 448.188 666.787 470.453 688.224 474.876C699.694 477.244 708.944 473.271 711.369 461.519C715.56 441.211 698.582 418.985 677.052 414.541C665.393 412.135 656.238 416.127 653.812 427.879ZM676.553 422.182C694.135 425.811 712.387 442.811 709.244 458.042C707.536 466.315 699.628 469.486 688.628 467.216C671.047 463.588 652.813 446.494 655.937 431.357C657.645 423.083 665.553 419.912 676.553 422.182Z" fill="#3F3F3F"/>
<path d="M683.102 513.823L636.689 489.865L635.508 492.064L661.251 538.263L621.785 517.603L620.604 519.801L650.73 574.677C653.909 580.526 653.949 582.073 652.523 586.756L653.609 587.776L662.425 571.37L661.292 570.435C657.539 575.393 655.577 577.826 651.943 571.405L628.037 528.481L660.653 545.462C665.095 547.74 668.979 550.045 672.148 553.273L677.601 543.125L676.469 542.19C672.305 546.492 666.58 542.543 663.272 536.734L643.201 500.666L680.806 520.327C684.611 522.371 683.86 526 682.876 530.266L683.963 531.286L693.278 513.95L692.236 512.846C689.3 516.282 688.397 516.341 683.102 513.823Z" fill="black"/>
</svg>
