<svg width="23" height="24" viewBox="0 0 23 24" fill="none" xmlns="http://www.w3.org/2000/svg">
<path fill-rule="evenodd" clip-rule="evenodd" d="M17.7258 16.4153L22.836 21.5325C23.0642 21.7864 23.0529 22.1751 22.8104 22.4153L21.9162 23.3108C21.7962 23.4319 21.6329 23.5 21.4626 23.5C21.2923 23.5 21.129 23.4319 21.0091 23.3108L15.899 18.1935C15.7576 18.0519 15.6293 17.8977 15.5157 17.733L14.5575 16.4536C12.9722 17.7214 11.0035 18.4116 8.9747 18.411C4.7941 18.4255 1.16131 15.5377 0.227054 11.4571C-0.707201 7.3765 1.30641 3.19226 5.07578 1.38156C8.84515 -0.429146 13.3643 0.616933 15.9577 3.90049C18.5512 7.18404 18.5267 11.8287 15.899 15.0848L17.1765 15.9675C17.376 16.0954 17.5603 16.2456 17.7258 16.4153ZM2.58715 9.45551C2.58715 12.9883 5.44701 15.8521 8.97483 15.8521C10.669 15.8521 12.2937 15.1782 13.4916 13.9786C14.6895 12.779 15.3625 11.152 15.3625 9.45551C15.3625 5.92277 12.5027 3.05892 8.97483 3.05892C5.44701 3.05892 2.58715 5.92277 2.58715 9.45551Z" fill="#3F3F3F"/>
</svg>
