<svg width="26" height="26" viewBox="0 0 26 26" fill="none" xmlns="http://www.w3.org/2000/svg">
<path d="M1 0C0.447715 0 0 0.447715 0 1C0 1.55228 0.447715 2 1 2L1 0ZM4.33333 1L5.30348 0.757464C5.19218 0.312297 4.7922 0 4.33333 0V1ZM22.3333 19.3333C22.8856 19.3333 23.3333 18.8856 23.3333 18.3333C23.3333 17.781 22.8856 17.3333 22.3333 17.3333V19.3333ZM25 3.66667L25.9701 3.9092C26.0448 3.61046 25.9777 3.29397 25.7882 3.05125C25.5987 2.80854 25.3079 2.66667 25 2.66667V3.66667ZM22.3333 14.3333V15.3333C22.7922 15.3333 23.1922 15.021 23.3035 14.5759L22.3333 14.3333ZM1 2H4.33333V0H1L1 2ZM3.36319 1.24254L4.02986 3.9092L5.97014 3.42413L5.30348 0.757464L3.36319 1.24254ZM4.02986 3.9092L6.69652 14.5759L8.63681 14.0908L5.97014 3.42413L4.02986 3.9092ZM7.66667 13.3333H7V15.3333H7.66667V13.3333ZM7 19.3333H22.3333V17.3333H7V19.3333ZM4 16.3333C4 17.9902 5.34315 19.3333 7 19.3333V17.3333C6.44772 17.3333 6 16.8856 6 16.3333H4ZM7 13.3333C5.34315 13.3333 4 14.6765 4 16.3333H6C6 15.781 6.44772 15.3333 7 15.3333V13.3333ZM5 4.66667H25V2.66667H5V4.66667ZM24.0299 3.42413L21.3632 14.0908L23.3035 14.5759L25.9701 3.9092L24.0299 3.42413ZM22.3333 13.3333H7.66667V15.3333H22.3333V13.3333ZM21.3333 23.6667C21.3333 23.8508 21.1841 24 21 24V26C22.2887 26 23.3333 24.9553 23.3333 23.6667H21.3333ZM21 24C20.8159 24 20.6667 23.8508 20.6667 23.6667H18.6667C18.6667 24.9553 19.7113 26 21 26V24ZM20.6667 23.6667C20.6667 23.4826 20.8159 23.3333 21 23.3333V21.3333C19.7113 21.3333 18.6667 22.378 18.6667 23.6667H20.6667ZM21 23.3333C21.1841 23.3333 21.3333 23.4826 21.3333 23.6667H23.3333C23.3333 22.378 22.2887 21.3333 21 21.3333V23.3333ZM8 23.6667C8 23.8508 7.85076 24 7.66667 24V26C8.95533 26 10 24.9553 10 23.6667H8ZM7.66667 24C7.48257 24 7.33333 23.8508 7.33333 23.6667H5.33333C5.33333 24.9553 6.378 26 7.66667 26V24ZM7.33333 23.6667C7.33333 23.4826 7.48257 23.3333 7.66667 23.3333V21.3333C6.378 21.3333 5.33333 22.378 5.33333 23.6667H7.33333ZM7.66667 23.3333C7.85076 23.3333 8 23.4826 8 23.6667H10C10 22.378 8.95533 21.3333 7.66667 21.3333V23.3333Z" fill="#3F3F3F"/>
</svg>
